<?xml version="1.0" encoding="UTF-8" standalone="no"?>
<!-- Created with Inkscape (http://www.inkscape.org/) -->

<svg
   xmlns:dc="http://purl.org/dc/elements/1.1/"
   xmlns:cc="http://creativecommons.org/ns#"
   xmlns:rdf="http://www.w3.org/1999/02/22-rdf-syntax-ns#"
   xmlns:svg="http://www.w3.org/2000/svg"
   xmlns="http://www.w3.org/2000/svg"
   xmlns:sodipodi="http://sodipodi.sourceforge.net/DTD/sodipodi-0.dtd"
   xmlns:inkscape="http://www.inkscape.org/namespaces/inkscape"
   id="svg2802"
   version="1.1"
   inkscape:version="0.48.4 r9943 custom"
   width="208.08125"
   height="196.14999"
   xml:space="preserve"
   sodipodi:docname="logo.svg"><metadata
     id="metadata2808"><rdf:RDF><cc:Work
         rdf:about=""><dc:format>image/svg+xml</dc:format><dc:type
           rdf:resource="http://purl.org/dc/dcmitype/StillImage" /></cc:Work></rdf:RDF></metadata><defs
     id="defs2806"><clipPath
       clipPathUnits="userSpaceOnUse"
       id="clipPath2816"><path
         d="M 0,432 432,432 432,0 0,0 0,432 z"
         id="path2818"
         inkscape:connector-curvature="0" /></clipPath><clipPath
       clipPathUnits="userSpaceOnUse"
       id="clipPath2828"><path
         d="M 0,432 432,432 432,0 0,0 0,432 z"
         id="path2830"
         inkscape:connector-curvature="0" /></clipPath><clipPath
       clipPathUnits="userSpaceOnUse"
       id="clipPath2852"><path
         d="M 0,432 432,432 432,0 0,0 0,432 z"
         id="path2854"
         inkscape:connector-curvature="0" /></clipPath></defs><sodipodi:namedview
     pagecolor="#ffffff"
     bordercolor="#666666"
     borderopacity="1"
     objecttolerance="10"
     gridtolerance="10"
     guidetolerance="10"
     inkscape:pageopacity="0"
     inkscape:pageshadow="2"
     inkscape:window-width="1100"
     inkscape:window-height="819"
     id="namedview2804"
     showgrid="false"
     fit-margin-top="0"
     fit-margin-left="0"
     fit-margin-right="0"
     fit-margin-bottom="0"
     inkscape:zoom="1.2361274"
     inkscape:cx="11.774748"
     inkscape:cy="115.5428"
     inkscape:window-x="0"
     inkscape:window-y="23"
     inkscape:window-maximized="0"
     inkscape:current-layer="g2810" /><g
     id="g2810"
     inkscape:groupmode="layer"
     inkscape:label="mocoloco_logo_vector_1"
     transform="matrix(1.25,0,0,-1.25,-160.94138,402.58725)"><g
       id="g2812"><g
         id="g2814"
         clip-path="url(#clipPath2816)"><g
           id="g2820"
           transform="translate(280.0371,226.7168)"><path
             style="fill:#7a7d8e;fill-opacity:1;fill-rule:nonzero;stroke:none"
             d="M 83.78125 0.28125 L 83.78125 80.4375 L 0 80.4375 L 0 80.46875 L 17.53125 91.5 C 24.406029 86.560784 32.826556 83.65625 41.9375 83.65625 C 58.75 83.65625 73.235 93.55375 79.90625 107.84375 L 61.84375 125.75 L 79.625 143.90625 C 72.8225 157.84875 58.49625 167.4375 41.9375 167.4375 C 33.124393 167.4375 24.966355 164.71092 18.21875 160.0625 L 18.125 160.15625 L 51.0625 185.375 C 52.725 186.87625 54.51875 188.21625 56.40625 189.4375 L 57.59375 190.34375 L 57.65625 190.25 C 63.93375 194.00375 71.27875 196.15625 79.125 196.15625 C 96.63125 196.15625 111.6125 185.40625 117.875 170.15625 L 137.8125 185.40625 L 137.96875 185.21875 C 145.415 192.0125 155.31375 196.15625 166.1875 196.15625 C 189.32625 196.15625 208.09375 177.38875 208.09375 154.25 C 208.09375 139.575 200.51875 126.67 189.09375 119.1875 L 174.59375 108.09375 C 193.7075 104.205 208.09375 87.2925 208.09375 67.03125 C 208.09375 51.8025 199.96375 38.46 187.8125 31.125 L 157 7.5625 C 165.2692 15.21559 170.4375 26.156733 170.4375 38.3125 C 170.4375 61.45125 151.67 80.21875 128.53125 80.21875 C 105.39375 80.21875 86.65625 61.45125 86.65625 38.3125 C 86.65625 27.204016 90.975707 17.123212 98.03125 9.625 L 83.78125 0.28125 z M 1.96875 1.34375 L 41.71875 37.625 L 47.71875 32.15625 L 1.96875 1.34375 z M 150.1875 2.375 L 150.125 2.4375 C 150.36355 2.5813659 150.60833 2.7265445 150.84375 2.875 L 150.1875 2.375 z M 128.53125 83.65625 C 151.67 83.65625 170.4375 102.42375 170.4375 125.5625 C 170.4375 148.70125 151.67 167.4375 128.53125 167.4375 C 105.39375 167.4375 86.65625 148.70125 86.65625 125.5625 C 86.65625 102.42375 105.39375 83.65625 128.53125 83.65625 z "
             transform="matrix(0.8,0,0,-0.8,-151.284,95.353)"
             id="path2822" /></g></g></g><g
       id="g2824"><g
         id="g2826"
         clip-path="url(#clipPath2828)"><g
           id="g2832"
           transform="translate(265.1006,221.6309)" /><g
           id="g2836"
           transform="translate(265.1006,291.4111)" /><g
           id="g2840"
           transform="translate(195.7803,322.5034)" /><g
           id="g2844"
           transform="translate(178.2197,221.4629)" /></g></g></g></svg>